<svg width="273" height="281" viewBox="0 0 273 281" fill="none" xmlns="http://www.w3.org/2000/svg">
<path d="M117.988 137.312C118.627 137.188 119.287 137.318 119.825 137.675C120.364 138.033 120.74 138.591 120.874 139.228C121.007 139.866 120.885 140.53 120.549 141.083C119.331 143.095 118.168 145.127 117.048 147.191C106.37 166.903 100.068 188.625 96.03 210.71C92.4603 230.295 90.642 250.244 89.3586 270.338C89.2044 272.732 89.0563 275.123 88.9095 277.473C88.8695 278.118 88.5943 278.732 88.1233 279.181C87.6525 279.63 87.0278 279.876 86.3831 279.866C85.7384 279.856 85.1219 279.589 84.6654 279.126C84.2089 278.663 83.953 278.04 83.9334 277.394C83.861 275.032 83.802 272.623 83.7605 270.206C83.3897 249.925 84.3965 229.436 88.0738 209.261C92.2177 186.531 99.672 163.986 112.283 144.366C113.604 142.314 114.974 140.305 116.404 138.329C116.784 137.805 117.348 137.436 117.988 137.312Z" fill="#FFAF02"/>
<path d="M151.243 116.433C151.973 116.348 152.705 116.553 153.28 117.003C153.854 117.453 154.228 118.115 154.321 118.844C154.414 119.573 154.217 120.308 153.786 120.898C152.172 123.107 150.626 125.342 149.126 127.626C133.718 151.153 124.265 178.082 118.19 205.559C113.666 226.159 110.779 247.17 109.022 268.372C108.796 271.099 108.589 273.916 108.403 276.615C108.36 277.257 108.084 277.87 107.613 278.317C107.143 278.765 106.52 279.01 105.877 279C105.234 278.99 104.619 278.725 104.163 278.263C103.707 277.801 103.45 277.179 103.427 276.536C103.327 273.799 103.266 270.937 103.241 268.162C103.06 246.584 105.026 224.896 109.684 203.687C115.919 175.424 126.641 147.557 144.111 124.109C145.808 121.835 147.557 119.62 149.378 117.445C149.847 116.885 150.513 116.517 151.243 116.433Z" fill="#FFAF02"/>
<path d="M13.3837 169.586C17.3527 169.165 20.8622 170.226 23.8899 171.586C29.9153 174.397 34.5779 178.57 38.7028 183.038C49.6401 193.833 60.4968 204.712 71.273 215.674C72.7396 217.166 74.2047 218.659 75.6683 220.154C76.1804 220.677 76.4793 221.379 76.4886 222.115C76.498 222.85 76.2191 223.558 75.7112 224.085C75.2031 224.612 74.5051 224.916 73.7696 224.933C73.034 224.95 72.3226 224.677 71.7813 224.184C70.2347 222.775 68.689 221.364 67.1454 219.952C55.772 209.546 44.4798 199.057 33.2682 188.483L33.1227 188.335C26.2001 180.707 14.0426 173.437 9.90045 180.322C8.39803 182.039 9.19907 187.294 11.1076 191.648C12.9865 196.162 15.6373 200.612 18.5061 204.957C19.6296 206.654 20.7974 208.341 22.0056 210.028C22.376 210.545 22.5646 211.182 22.5024 211.822C22.4405 212.462 22.1373 213.05 21.6541 213.46C21.1709 213.87 20.5419 214.073 19.9003 214.03C19.2584 213.987 18.66 213.697 18.2105 213.247C16.6964 211.725 15.2307 210.167 13.8156 208.557C10.2014 204.419 6.84496 199.972 4.24773 194.785C2.01601 189.717 -1.31812 183.154 3.37151 175.549C5.49567 172.486 9.40173 169.937 13.3837 169.586Z" fill="#FFAF02"/>
<path d="M136.598 224.623C125.426 228.702 118.002 239.864 120.093 252.065C120.792 255.119 123.077 258.291 126.208 259.627C129.31 261.015 132.499 260.928 135.267 260.5C140.838 259.555 145.722 257.17 150.28 254.615C162.503 247.617 174.602 241.227 187.15 234.118C190.703 231.919 194.125 229.375 196.993 225.77C198.402 223.953 199.72 221.829 200.371 219.106C201.064 216.468 200.645 212.684 198.44 210.157C192.874 204.47 186.657 205.639 181.788 206.374C178.344 207.06 175.13 208.211 172.099 209.578C170.907 210.064 169.714 210.551 168.522 211.037C166.829 211.727 165.138 212.424 163.45 213.125C154.377 216.895 145.363 220.811 136.345 224.715L136.598 224.623ZM125.52 250.685C123.863 242.818 130.505 232.883 138.52 230.762L138.773 230.671C147.95 227.156 157.132 223.653 166.254 220.004C167.952 219.325 169.648 218.64 171.341 217.95C172.543 217.46 173.745 216.969 174.947 216.479L174.99 216.461C177.71 215.405 180.494 214.56 183.203 214.115C187.019 213.371 191.38 214.024 192.222 215.329C192.566 215.767 192.727 216.232 192.512 217.309C192.292 218.346 191.607 219.661 190.672 220.888C188.783 223.374 186.033 225.629 183.032 227.59C171.381 234.633 159.014 241.938 147.134 249.285C139.563 254.201 127.159 258.562 125.52 250.685Z" fill="#FFAF02"/>
<path d="M135.425 51.7094C135.91 51.4209 136.488 51.3203 137.026 51.4438C139.629 52.016 142.024 53.8641 143.402 56.0373C145.098 58.6528 145.801 61.4782 146.197 64.1859C146.705 68.1428 146.652 72.1008 146.301 75.9391C148.06 74.0705 149.924 72.2286 152.218 70.4881C152.634 70.1774 153.043 69.8829 153.475 69.5863C161.505 63.1918 175.595 62.3285 184.268 68.717C184.278 68.723 184.287 68.7285 184.296 68.7344C198.322 78.9176 194.994 95.4751 192.204 106.737C191.628 108.84 190.977 110.891 190.258 112.946C189.993 113.693 189.479 114.342 188.782 114.739C188.085 115.136 187.269 115.251 186.505 115.054C185.74 114.858 185.081 114.364 184.662 113.68C184.243 112.996 184.105 112.179 184.233 111.397C184.568 109.35 184.854 107.343 185.091 105.332C186.465 94.155 186.074 81.4004 178.897 77.0969C178.89 77.0925 178.883 77.0876 178.876 77.0832C172.376 72.6898 164.964 71.9838 157.871 76.3752C157.518 76.5868 157.178 76.7994 156.829 77.0278C154.667 78.449 152.431 80.4961 150.29 82.5856C149.212 83.6419 148.147 84.7296 147.066 85.8434C146.525 86.4005 145.984 86.9624 145.406 87.5462C145.126 87.8277 144.816 88.1382 144.477 88.4573C144.383 88.5456 144.292 88.6305 144.197 88.7156C144.08 88.8207 143.978 88.9098 143.829 89.0308C143.638 89.1759 143.563 89.2742 143.004 89.5907C142.935 89.6272 142.859 89.6651 142.771 89.7048C142.655 89.7575 142.458 89.839 142.225 89.9035C141.986 89.9685 141.683 90.0328 141.276 90.0357C141.064 90.0348 140.869 90.025 140.567 89.9667C140.204 89.895 139.793 89.7482 139.413 89.5128C138.631 89.0437 138.128 88.2523 137.942 87.6879C137.917 87.619 137.892 87.5355 137.878 87.4879C137.867 87.4495 137.857 87.4119 137.847 87.3751C137.829 87.3014 137.814 87.2307 137.801 87.1634C137.776 87.0288 137.761 86.9066 137.752 86.7955C137.718 86.352 137.759 86.0736 137.795 85.8505C139.681 78.4868 141.045 71.6251 140.632 64.8015C140.462 62.5387 140.052 60.3257 139.157 58.6022C138.408 57.1657 137.36 56.1523 135.861 55.6394C135.336 55.4674 134.892 55.0834 134.626 54.586C134.359 54.0877 134.29 53.5164 134.438 52.9843C134.586 52.4522 134.94 51.9988 135.425 51.7094Z" fill="#FFAF02"/>
<path d="M189.464 126.276C199.891 121.833 209.849 126.609 216.601 131.724C218.539 133.205 220.274 134.772 221.963 136.485C222.396 136.932 222.693 137.512 222.755 138.141C222.817 138.769 222.643 139.39 222.263 139.876C221.884 140.362 221.324 140.681 220.699 140.774C220.074 140.867 219.44 140.72 218.901 140.409C216.957 139.288 215.07 138.3 213.12 137.387C206.187 134.103 198.482 132.326 193.332 134.768C187.073 137.255 183.9 146.918 185.538 155.957C185.65 156.631 185.745 157.299 185.824 157.96C187.33 168.568 183.845 182.2 171.902 187.629C166.179 190.296 158.325 189.584 153.36 185.346C148.31 181.201 146.186 175.468 145.067 170.249C144.605 168.052 144.435 165.931 144.404 163.791C144.373 161.386 144.532 159.087 144.743 156.668C144.793 156.144 145.066 155.641 145.473 155.269C145.881 154.897 146.389 154.687 146.915 154.686C147.441 154.684 147.95 154.891 148.36 155.26C148.769 155.63 149.045 156.132 149.098 156.656C149.325 158.931 149.712 161.028 150.196 163.124C150.629 164.989 151.129 166.76 151.692 168.536C154.269 177.541 161.524 182.361 168.188 179.068C174.936 176.286 180.253 167.68 179.029 158.772C178.965 158.24 178.882 157.701 178.777 157.155C176.855 147.41 176.591 132.652 189.464 126.276Z" fill="#FFAF02"/>
<path d="M115.957 26.3864C121.362 16.7544 131.893 5.54584 146.261 6.71293C154.292 7.07406 163.163 11.4531 167.758 18.4347C170.129 21.8088 171.639 25.4327 172.943 28.8095C173.598 30.4935 174.208 32.1412 174.877 33.536C175.391 34.7084 176.14 35.5873 176.378 35.7821C176.385 35.7804 176.393 35.7788 176.403 35.7765C176.515 35.7492 176.759 35.6531 177.041 35.4943C177.624 35.1705 178.329 34.6382 179.038 34.0456C180.471 32.845 181.963 31.4157 183.534 30.0202C186.673 27.215 190.254 24.4062 194.566 22.4999C203.27 18.4092 214.003 19.8742 221.876 23.9986C230.042 27.8454 237.114 37.0128 236.311 47.1297C235.669 57.2618 228.271 64.7518 220.796 68.5074C218.598 69.5889 216.741 71.1114 215.619 72.9718C213.71 76.0474 214.221 79.9742 217.774 81.0257C218.387 81.1942 218.935 81.5722 219.289 82.1097C219.643 82.6467 219.777 83.2944 219.658 83.9173C219.54 84.5402 219.178 85.0939 218.651 85.4634C218.124 85.8332 217.476 85.9834 216.844 85.9148C213.583 85.6028 210.149 83.1679 208.868 79.8112C207.509 76.4906 207.902 72.8316 209.206 69.8321C210.792 66.1716 213.614 63.3797 216.703 61.4159C229.105 54.243 229.108 38.6832 217.134 33.4517C210.661 30.1862 204.114 28.4172 197.518 30.3621C194.224 31.2989 191.006 33.1045 187.869 35.39C186.29 36.5281 184.74 37.7882 182.985 39.095C182.095 39.7455 181.181 40.41 179.959 41.0442C178.789 41.6235 176.987 42.4108 174.729 41.7879C171.225 40.5628 170.275 38.1972 169.208 36.5807C168.219 34.8667 167.432 33.2723 166.594 31.7546C164.945 28.7279 163.151 26.0449 161.028 23.9622C156.789 19.7414 151.546 18.2957 145.488 17.8839C128.768 16.7666 117.658 40.8377 112.033 59.8955C111.313 62.3749 110.636 64.9458 110.037 67.4731C109.743 68.7147 109.463 69.9587 109.19 71.2821C109.071 71.851 108.925 72.6 108.823 73.1422C108.757 73.5082 108.706 73.7922 108.659 74.0657C108.629 74.2489 108.607 74.3951 108.592 74.4898C108.587 74.512 108.573 74.6476 108.578 74.5633C108.579 74.5397 108.581 74.5029 108.582 74.4192C108.582 74.3765 108.583 74.3217 108.579 74.2367C108.579 74.2255 108.577 74.2139 108.577 74.2015C108.562 74.4965 108.547 74.7921 108.531 75.0882C108.501 75.2123 108.495 75.2854 108.381 75.6226C108.347 75.7157 108.308 75.8297 108.205 76.0407C108.065 76.2592 108.04 76.5567 107.192 77.2985C106.767 77.6393 105.844 78.2147 104.518 78.0947C103.185 77.9759 102.26 77.127 101.907 76.6318C101.197 75.5825 101.287 75.2624 101.207 74.9966C101.195 74.9249 101.193 74.9023 101.189 74.8785C101.186 74.8544 101.184 74.8316 101.181 74.8103C101.176 74.7676 101.173 74.7297 101.17 74.6954C101.164 74.6267 101.161 74.5713 101.159 74.5238C101.155 74.4295 101.155 74.3638 101.156 74.3084C101.157 74.199 101.161 74.1298 101.165 74.0671C101.172 73.9449 101.181 73.8538 101.19 73.7551C101.202 73.6468 101.2 73.6496 101.206 73.5955C101.224 73.4222 101.247 73.227 101.276 73.0001C101.318 72.6647 101.36 72.3432 101.419 71.9374C102.531 58.1081 102.631 41.7391 99.2938 27.7426C98.1615 23.2637 95.7466 18.3254 93.0117 18.6965C92.3654 18.7312 91.7262 18.5043 91.2355 18.0728C90.7449 17.6409 90.4429 17.0397 90.3952 16.3944C90.3476 15.7491 90.558 15.1101 90.9799 14.6108C91.4019 14.1119 92.0009 13.7936 92.6452 13.7331C96.5003 13.2936 99.7084 16.1565 101.212 18.5364C102.864 21.0305 103.83 23.6153 104.642 26.1891C106.287 32.3507 107.377 38.3666 108.047 44.4016C110.093 38.264 112.613 32.216 115.957 26.3864ZM176.4 35.7993C176.436 35.8254 176.454 35.8305 176.452 35.8107C176.434 35.8048 176.416 35.8018 176.4 35.7993Z" fill="#FFAF02"/>
<path d="M79.9089 38.075C80.5444 38.0616 81.1547 38.2865 81.6129 38.7076C82.0711 39.1287 82.3464 39.7178 82.3866 40.3522C82.427 40.9867 82.2239 41.6101 81.8577 42.1184C80.2044 44.4235 78.6706 46.7629 77.2276 49.1584C70.9412 59.7264 65.9992 71.5533 65.508 82.553C65.3576 88.0818 66.4884 92.5545 70.1411 94.2231C74.0597 96.1072 80.4339 95.0636 86.0095 92.701C92.6686 89.9265 101.168 88.1257 109.025 92.4189C116.971 96.6858 120.04 106.58 118.849 114.27C116.494 129.62 105.515 140.057 94.4263 147.14C91.8898 148.731 89.2941 150.154 86.5619 151.485C85.9943 151.757 85.3408 151.842 84.7224 151.683C84.1041 151.525 83.5748 151.141 83.2457 150.608C82.9167 150.075 82.8101 149.43 82.9451 148.806C83.08 148.182 83.4485 147.636 83.9463 147.25C86.2399 145.475 88.3802 143.689 90.4446 141.831C99.5526 133.63 107.52 123.551 108.975 113.011C109.695 107.662 108.377 102.547 104.501 99.8614C100.656 97.0693 94.3942 97.2161 88.8883 99.5886C82.4815 102.074 75.6904 105.066 67.0265 102.689C57.7285 99.9615 54.4901 89.2841 54.9363 82.2617C55.719 67.4237 62.8899 55.0815 71.7489 45.0611C73.777 42.8163 75.9211 40.7185 78.1934 38.7511C78.6689 38.3434 79.2733 38.0882 79.9089 38.075Z" fill="#FFAF02"/>
<path d="M246.673 61.2903C247.315 60.9489 248.068 60.8756 248.77 61.0844C249.473 61.2931 250.064 61.7684 250.432 62.396C252.774 66.1704 252.677 71.4419 250.924 75.2393C246.802 83.9705 239.663 89.0048 232.884 93.817C231.765 94.5782 230.638 95.314 229.505 96.0326C236.115 96.583 242.692 98.0934 248.974 100.802C261.17 106.091 275.256 117.922 272.342 135.545C265.78 157.288 243.761 159.303 228.519 160.167C222.583 160.29 216.708 161.332 211.671 164.025C208.973 165.444 206.298 167.648 204.851 169.778C204.54 170.332 204.042 170.773 203.436 170.988C202.83 171.203 202.17 171.177 201.593 170.913C201.017 170.649 200.567 170.166 200.334 169.566C200.101 168.966 200.11 168.301 200.327 167.704C202.19 163.604 204.933 160.9 208.12 158.5C213.967 154.224 220.988 152.153 227.866 151.324C242.312 149.65 259.152 144.163 261.376 133.277C263.285 124.765 254.678 115.057 244.583 110.622C234.34 105.894 222.268 104.837 210.514 106.489C210.221 106.513 210.039 106.636 208.901 106.505C208.371 106.36 207.05 106.366 205.622 104.373C204.961 103.412 204.797 101.979 204.906 101.309C204.997 100.524 205.23 99.9928 205.426 99.6165C206.255 98.2363 206.582 98.2315 206.831 97.9877C207.064 97.8146 207.255 97.7009 207.273 97.69C207.5 97.5538 207.673 97.4629 207.86 97.3662C208.18 97.2034 208.371 97.1141 208.664 96.9743C209.11 96.766 209.664 96.5104 210.067 96.3279C211.015 95.8952 211.929 95.4792 212.798 95.0794C214.604 94.2472 216.407 93.3943 218.16 92.5332C221.718 90.7822 225.162 88.962 228.517 86.9713C235.079 83.0116 241.851 78.3759 245.074 72.5339C246.403 69.9881 246.663 67.5257 245.489 65.0254C245.175 64.3692 245.111 63.6134 245.33 62.9143C245.55 62.2153 246.031 61.6318 246.673 61.2903ZM212.285 105.656C212.203 105.702 212.162 105.732 212.23 105.694C212.233 105.692 212.259 105.677 212.324 105.633C212.311 105.641 212.298 105.648 212.285 105.656Z" fill="#FFAF02"/>
<path d="M156.904 96.3514C160.629 95.4644 163.855 96.0767 167.063 97.7171C167.511 97.9641 167.967 98.2516 168.41 98.5929C171.227 100.906 172.935 104.066 172.503 108.068C172.259 110.053 170.953 112.077 169.331 113.096C167.728 114.145 166.075 114.484 164.563 114.608C163.845 114.662 163.15 114.66 162.447 114.62C161.897 114.582 161.363 114.361 160.962 113.971C160.562 113.581 160.327 113.059 160.309 112.51C160.292 111.962 160.493 111.425 160.868 111.01C161.243 110.595 161.762 110.342 162.308 110.268C162.856 110.188 163.365 110.084 163.843 109.954C164.856 109.684 165.715 109.259 166.175 108.8C166.639 108.329 166.736 107.968 166.753 107.404C166.81 106.274 165.807 104.358 164.643 103.534C164.487 103.419 164.285 103.289 164.062 103.167C162.428 102.265 159.917 101.759 158.262 102.035C157.417 102.183 157.023 102.397 156.746 102.726C156.444 103.068 156.246 103.973 156.36 105.066C156.402 105.535 156.487 106.04 156.613 106.577C156.744 107.113 156.698 107.688 156.449 108.189C156.201 108.69 155.775 109.074 155.259 109.258C154.742 109.443 154.169 109.416 153.66 109.186C153.15 108.956 152.749 108.54 152.511 108.043C152.213 107.392 151.957 106.733 151.752 106.036C151.304 104.445 151.009 102.449 151.949 100.311C152.892 98.1365 155.097 96.8085 156.904 96.3514Z" fill="#FFAF02"/>
<path d="M44.8868 207.607C45.451 207.558 46.0094 207.728 46.4424 208.083C46.8754 208.439 47.1513 208.953 47.2129 209.516C47.2746 210.08 47.1144 210.644 46.785 211.098C46.018 212.159 45.2812 213.224 44.5664 214.309C38.1934 223.837 32.3157 237.774 40.2717 243.733C47.3115 250.626 55.6265 238.619 60.1397 229.046C60.703 227.893 61.2527 226.711 61.7932 225.501C62.0561 224.912 62.5283 224.432 63.1258 224.176C63.723 223.92 64.3937 223.906 64.9939 224.14C65.594 224.374 66.0787 224.837 66.3453 225.43C66.6121 226.022 66.6355 226.695 66.4308 227.306C65.9894 228.617 65.5285 229.905 65.0416 231.172C62.8528 236.72 60.3342 242.245 55.8685 247.098C53.6291 249.445 50.6256 251.79 46.6067 252.382C42.5528 253.005 38.6397 251.231 36.013 249.089C29.416 244.256 28.7987 234.737 30.9562 228.511C32.9864 221.934 36.6315 216.407 40.7014 211.44C41.5819 210.376 42.4847 209.347 43.4188 208.335C43.8005 207.923 44.3223 207.656 44.8868 207.607Z" fill="#FFAF02"/>
</svg>
